<svg id="图层_1" data-name="图层 1" xmlns="http://www.w3.org/2000/svg" viewBox="0 0 80.17 32.2"><defs><style>.cls-1{fill:#fff;}</style></defs><title>未标题-1</title><path class="cls-1" d="M724.28,382.61s-9.62-.7-25.41-7.79c-7.59-3.14-18.93-5.47-27.23,3.9a3.19,3.19,0,0,0-3.24-2.18c4.15-3.74,12.15-8.81,22.37-6.58C699.5,372.89,719.82,383,724.28,382.61Z" transform="translate(-644.11 -369.42)"/><path class="cls-1" d="M672.15,380v3.44s16.8,1.22,22.37,0,20-.81,29.76,1.83a67.45,67.45,0,0,0-25.51-3.95C690,381.09,677.21,381.4,672.15,380Z" transform="translate(-644.11 -369.42)"/><path class="cls-1" d="M663.78,389.33a6.08,6.08,0,1,0,6.07,6.07A6.07,6.07,0,0,0,663.78,389.33Zm0,10a3.92,3.92,0,1,1,3.91-3.92A3.92,3.92,0,0,1,663.78,399.32Z" transform="translate(-644.11 -369.42)"/><path class="cls-1" d="M713.26,389.47a6.08,6.08,0,1,0,6.07,6.07A6.07,6.07,0,0,0,713.26,389.47Zm0,10a3.92,3.92,0,1,1,3.91-3.92A3.92,3.92,0,0,1,713.26,399.46Z" transform="translate(-644.11 -369.42)"/><path class="cls-1" d="M670.7,393.34a9.82,9.82,0,0,1,.28,3.55c1.61-.1,34.94,0,34.94,0v-2.06S677.48,392.37,670.7,393.34Z" transform="translate(-644.11 -369.42)"/><path class="cls-1" d="M720.4,396.42v.47a38.27,38.27,0,0,0,3.88-.16A25.56,25.56,0,0,1,720.4,396.42Z" transform="translate(-644.11 -369.42)"/><path class="cls-1" d="M668.92,377.79a5.5,5.5,0,0,0-5.85.94,6.08,6.08,0,0,1-2.49.51s-3-.3-7.56,2.16c-7.16,3.91-8.91,9.11-8.91,11.94s3.62,3.52,4.35,3.55,8.1,0,8.1,0v-3.55l-8-.06c-1.28,0-1.15-2.06,0-3.68,4.29-5.67,8.54-6.5,11-7,2.27-.22,2.87.05,4,1.23a4.46,4.46,0,0,0,6.55.17C671.32,382.85,671.69,379,668.92,377.79Zm-2,5.69a2.14,2.14,0,1,1,2.14-2.14A2.14,2.14,0,0,1,666.91,383.48Z" transform="translate(-644.11 -369.42)"/></svg>